<?xml version="1.0" encoding="UTF-8" standalone="no"?>
<!-- Created with Inkscape (http://www.inkscape.org/) -->
<svg
   xmlns:dc="http://purl.org/dc/elements/1.1/"
   xmlns:cc="http://web.resource.org/cc/"
   xmlns:rdf="http://www.w3.org/1999/02/22-rdf-syntax-ns#"
   xmlns:svg="http://www.w3.org/2000/svg"
   xmlns="http://www.w3.org/2000/svg"
   xmlns:sodipodi="http://sodipodi.sourceforge.net/DTD/sodipodi-0.dtd"
   xmlns:inkscape="http://www.inkscape.org/namespaces/inkscape"
   width="576"
   height="160"
   id="svg2"
   sodipodi:version="0.32"
   inkscape:version="0.45.1"
   version="1.0"
   sodipodi:docbase="/comun/Proyectos/CrazyBus"
   sodipodi:docname="CB_NFRESHLOGO.svg"
   inkscape:output_extension="org.inkscape.output.svg.inkscape"
   inkscape:export-filename="/comun/Proyectos/CrazyBus/CB_NFRESHLOGO.png"
   inkscape:export-xdpi="22.5"
   inkscape:export-ydpi="22.5">
  <defs
     id="defs4">
    <filter
       inkscape:collect="always"
       id="filter3186">
      <feGaussianBlur
         inkscape:collect="always"
         stdDeviation="1.2574369"
         id="feGaussianBlur3188" />
    </filter>
    <filter
       inkscape:collect="always"
       id="filter3194">
      <feGaussianBlur
         inkscape:collect="always"
         stdDeviation="1.2574369"
         id="feGaussianBlur3196" />
    </filter>
    <filter
       inkscape:collect="always"
       x="-0.10944098"
       width="1.218882"
       y="-0.65123215"
       height="2.3024643"
       id="filter3490">
      <feGaussianBlur
         inkscape:collect="always"
         stdDeviation="3.969737"
         id="feGaussianBlur3492" />
    </filter>
    <filter
       inkscape:collect="always"
       x="-0.11733178"
       width="1.2346636"
       y="-0.64199776"
       height="2.2839955"
       id="filter3494">
      <feGaussianBlur
         inkscape:collect="always"
         stdDeviation="3.969737"
         id="feGaussianBlur3496" />
    </filter>
    <filter
       inkscape:collect="always"
       x="-0.10014893"
       width="1.2002979"
       y="-0.69933675"
       height="2.3986735"
       id="filter3498">
      <feGaussianBlur
         inkscape:collect="always"
         stdDeviation="3.969737"
         id="feGaussianBlur3500" />
    </filter>
    <filter
       inkscape:collect="always"
       x="-0.098179164"
       width="1.1963583"
       y="-0.59923729"
       height="2.1984746"
       id="filter3502">
      <feGaussianBlur
         inkscape:collect="always"
         stdDeviation="3.969737"
         id="feGaussianBlur3504" />
    </filter>
    <filter
       inkscape:collect="always"
       x="-0.094387084"
       width="1.1887742"
       y="-0.64012256"
       height="2.2802451"
       id="filter3506">
      <feGaussianBlur
         inkscape:collect="always"
         stdDeviation="3.969737"
         id="feGaussianBlur3508" />
    </filter>
    <filter
       inkscape:collect="always"
       x="-0.087136603"
       width="1.1742732"
       y="-0.75803234"
       height="2.5160647"
       id="filter3510">
      <feGaussianBlur
         inkscape:collect="always"
         stdDeviation="3.969737"
         id="feGaussianBlur3512" />
    </filter>
    <filter
       inkscape:collect="always"
       x="-0.090687592"
       width="1.1813752"
       y="-0.68471799"
       height="2.369436"
       id="filter3514">
      <feGaussianBlur
         inkscape:collect="always"
         stdDeviation="3.969737"
         id="feGaussianBlur3516" />
    </filter>
  </defs>
  <sodipodi:namedview
     id="base"
     pagecolor="#00ff00"
     bordercolor="#666666"
     borderopacity="1.0"
     inkscape:pageopacity="0"
     inkscape:pageshadow="2"
     inkscape:zoom="0.98994949"
     inkscape:cx="292.3665"
     inkscape:cy="36.449598"
     inkscape:document-units="px"
     inkscape:current-layer="layer1"
     width="576px"
     height="160px"
     inkscape:window-width="843"
     inkscape:window-height="620"
     inkscape:window-x="0"
     inkscape:window-y="0" />
  <metadata
     id="metadata7">
    <rdf:RDF>
      <cc:Work
         rdf:about="">
        <dc:format>image/svg+xml</dc:format>
        <dc:type
           rdf:resource="http://purl.org/dc/dcmitype/StillImage" />
      </cc:Work>
    </rdf:RDF>
  </metadata>
  <g
     inkscape:label="Capa 1"
     inkscape:groupmode="layer"
     id="layer1">
    <path
       style="fill:#ff0000;fill-rule:evenodd;stroke:#ff0000;stroke-width:1px;stroke-linecap:butt;stroke-linejoin:miter;stroke-opacity:1"
       d="M 127.27922,2.4162029 L 575.78695,1.4060504 C 564.99349,2.7685283 552.79372,11.006313 518.20826,128.68527 L 46.467017,128.68527 C 75.761441,83.346015 97.984797,-7.1657273 127.27922,2.4162029 z "
       id="path2160"
       sodipodi:nodetypes="ccccc" />
    <path
       style="opacity:1;fill:#ff0000;fill-opacity:1;stroke:#ff0000;stroke-width:0.80000001;stroke-linecap:round;stroke-linejoin:miter;stroke-miterlimit:4;stroke-dasharray:none;stroke-dashoffset:0;stroke-opacity:1;filter:url(#filter3510)"
       id="path2166"
       d="M 3.7718832,4.2112723 C 10.462449,3.3896065 17.181132,3.1412957 23.914545,3.0774081 C 35.013632,3.0555031 46.112226,2.991015 57.210718,2.8653126 C 63.12861,2.783171 69.045483,2.649811 74.963265,2.5632761 C 78.031459,2.5154435 81.099945,2.5255843 84.168296,2.5248747 C 87.2942,2.5199263 90.420023,2.5307136 93.545889,2.5469983 C 96.232467,2.5715751 98.919028,2.5341514 101.60547,2.5113912 L 90.713249,12.422559 C 88.052859,12.399622 85.392352,12.36217 82.731822,12.387062 C 79.589743,12.403302 76.447705,12.414385 73.305589,12.408919 C 70.267926,12.406759 67.230087,12.416958 64.192663,12.361855 C 58.504245,12.264019 52.816841,12.115686 47.127976,12.041788 C 36.027323,11.936067 24.92146,11.891253 13.826182,12.311117 C 6.8854016,12.646078 -0.094105505,12.963196 -6.932839,14.279943 L 3.7718832,4.2112723 z " />
    <path
       style="opacity:1;fill:#ff0000;fill-opacity:1;stroke:#ff0000;stroke-width:0.80000001;stroke-linecap:round;stroke-linejoin:miter;stroke-miterlimit:4;stroke-dasharray:none;stroke-dashoffset:0;stroke-opacity:1;filter:url(#filter3514)"
       id="path2168"
       d="M -3.1869854,19.337593 C -0.90861993,18.987711 1.3976606,18.895051 3.6943146,18.741994 C 6.3756456,18.614332 9.0608316,18.67362 11.743828,18.694842 C 16.221482,18.785071 20.699456,18.780939 25.177614,18.764073 C 28.426965,18.714431 31.676377,18.688038 34.926021,18.670167 C 37.23951,18.459385 39.480657,18.75851 41.757283,19.015952 C 43.909136,19.368742 46.088325,19.572638 48.250412,19.79895 C 50.714783,20.155919 53.147004,20.615862 55.581593,21.138046 C 57.662471,21.557663 59.783203,21.577115 61.894,21.660726 C 63.909117,21.690426 65.924507,21.675967 67.939746,21.674213 C 69.958523,21.669103 71.977306,21.668871 73.996087,21.667136 C 76.288301,21.697111 78.5808,21.681715 80.873123,21.676411 C 82.301913,21.667286 83.730641,21.63649 85.158969,21.606512 C 86.53912,21.630703 87.919451,21.639083 89.299708,21.653932 C 89.609112,21.655465 89.918516,21.656998 90.22792,21.658531 L 79.235131,31.661198 C 78.922358,31.662731 78.609585,31.664263 78.296812,31.665796 C 76.881812,31.68066 75.466743,31.689242 74.051844,31.713177 C 72.674839,31.682827 71.297365,31.651879 69.919833,31.643165 C 67.620414,31.638021 65.320807,31.622576 63.021512,31.654481 C 61.002945,31.656916 58.984377,31.658267 56.965813,31.662928 C 54.940043,31.657725 52.913593,31.679648 50.888594,31.608616 C 48.730353,31.461843 46.562374,31.377532 44.448044,30.863291 C 42.032612,30.37545 39.623306,29.897667 37.175248,29.59115 C 34.986528,29.400148 32.792025,29.245368 30.631975,28.818176 C 28.434748,28.670271 26.238116,28.501166 24.02567,28.588577 C 20.846151,28.5701 17.666878,28.543557 14.487703,28.49034 C 9.9635739,28.469201 5.439532,28.460504 0.91585169,28.550555 C -1.7812654,28.585931 -4.4793594,28.612155 -7.1739692,28.744116 C -9.4730577,28.943161 -11.806388,29.006603 -14.029107,29.699862 L -3.1869854,19.337593 z " />
    <path
       style="opacity:1;fill:#ff0000;fill-opacity:1;stroke:#ff0000;stroke-width:0.80000001;stroke-linecap:round;stroke-linejoin:miter;stroke-miterlimit:4;stroke-dasharray:none;stroke-dashoffset:0;stroke-opacity:1;filter:url(#filter3506)"
       id="path2172"
       d="M -9.0139476,36.776434 C -4.7772068,36.995286 -0.53168764,36.977531 3.7095195,37.008813 C 8.5637912,37.057845 13.417589,36.971559 18.270982,36.8925 C 20.708791,36.84476 23.146988,36.834576 25.58513,36.820936 C 27.792023,36.652403 29.932077,37.029335 32.100596,37.373618 C 34.902114,38.302927 37.622701,39.367486 40.473278,40.163447 C 42.985796,40.790185 45.568432,40.792283 48.135153,40.895618 C 50.350681,40.911529 52.566278,40.888181 54.781766,40.874084 C 56.81189,40.861863 58.842052,40.862782 60.872199,40.859758 C 62.890096,40.858825 64.907993,40.859233 66.92589,40.859253 C 68.945889,40.859385 70.965888,40.859395 72.985887,40.859443 C 75.00621,40.859466 77.026533,40.859462 79.046857,40.859463 C 79.383576,40.859463 79.720296,40.859463 80.057016,40.859463 L 69.081884,50.846064 C 68.745165,50.846064 68.408445,50.846063 68.071726,50.846063 C 66.051397,50.846058 64.031068,50.846058 62.010739,50.846032 C 59.9907,50.846 57.97066,50.845955 55.95062,50.845962 C 53.932901,50.846237 51.915182,50.845889 49.897464,50.847642 C 47.870632,50.850801 45.843797,50.852375 43.816971,50.858882 C 41.605962,50.858423 39.394329,50.874658 37.184129,50.800958 C 34.551404,50.625878 31.907519,50.54787 29.362638,49.749592 C 26.582653,48.885697 23.865107,47.793301 21.022775,47.165585 C 18.888029,46.940527 16.772504,46.656323 14.61458,46.803369 C 12.228867,46.789855 9.843091,46.780178 7.457729,46.731804 C 2.6895702,46.651249 -2.0789986,46.565698 -6.8480811,46.615491 C -11.25965,46.64751 -15.674728,46.636104 -20.082312,46.847871 L -9.0139476,36.776434 z " />
    <path
       style="opacity:1;fill:#ff0000;fill-opacity:1;stroke:#ff0000;stroke-width:0.80000001;stroke-linecap:round;stroke-linejoin:miter;stroke-miterlimit:4;stroke-dasharray:none;stroke-dashoffset:0;stroke-opacity:1;filter:url(#filter3502)"
       id="path2174"
       d="M -14.171668,55.956708 C -11.616517,56.190769 -9.1122565,56.859958 -6.5952231,57.363344 C -3.1529668,57.95004 0.34190688,58.004229 3.8227784,58.09025 C 7.2949211,58.122173 10.767136,58.125028 14.239335,58.120421 C 17.192443,58.102537 20.14552,58.081996 23.098602,58.057183 C 25.3284,57.852428 27.47051,58.20904 29.654343,58.583023 C 31.904285,58.866133 34.051605,59.594043 36.219577,60.208769 C 38.00563,60.882554 39.90417,60.853346 41.769166,61.031704 C 43.790743,61.086671 45.813534,61.079647 47.835686,61.086666 C 50.11709,61.092402 52.398501,61.079366 54.679888,61.071031 C 57.015403,61.094768 59.351095,61.079315 61.686664,61.072605 C 63.77145,61.065609 65.856247,61.06482 67.941041,61.063018 C 68.951647,61.062475 69.962252,61.062606 70.972858,61.062401 L 59.997487,71.049209 C 58.987345,71.048987 57.977204,71.049116 56.967063,71.048544 C 54.889368,71.046685 52.811671,71.045812 50.733985,71.038855 C 48.396592,71.032536 46.059054,71.016951 43.721738,71.044049 C 41.444185,71.041335 39.166588,71.03364 36.889066,71.049606 C 34.834429,71.051643 32.777631,71.088135 30.725359,70.958673 C 28.773423,70.680205 26.779324,70.626745 24.929306,69.834768 C 22.815137,69.260808 20.716318,68.609268 18.520349,68.382406 C 16.409064,68.188525 14.318409,67.800997 12.177405,67.995988 C 9.2639511,67.976027 6.3505348,67.960103 3.4370452,67.951803 C -0.042006013,67.951992 -3.5221515,67.984896 -7.0002993,67.8901 C -10.548967,67.754772 -14.114641,67.671828 -17.617638,67.025724 C -20.141775,66.540075 -22.678562,65.894278 -25.267781,66.053393 L -14.171668,55.956708 z " />
    <path
       style="opacity:1;fill:#ff0000;fill-opacity:1;stroke:#ff0000;stroke-width:0.80000001;stroke-linecap:round;stroke-linejoin:miter;stroke-miterlimit:4;stroke-dasharray:none;stroke-dashoffset:0;stroke-opacity:1;filter:url(#filter3498)"
       id="path2176"
       d="M -17.081875,78.439824 C -14.664271,79.019601 -12.171637,79.044191 -9.7048145,79.195431 C -7.4039216,79.273207 -5.1015288,79.256978 -2.7997714,79.257473 C -0.76741084,79.251024 1.2649588,79.24965 3.2973254,79.246663 C 5.5859758,79.275897 7.8748995,79.260515 10.163652,79.25509 C 12.843027,79.230867 15.522006,79.291146 18.200763,79.339478 C 22.045954,79.413289 25.891975,79.342736 29.737058,79.29503 C 32.046861,79.261693 34.356876,79.255973 36.666851,79.246934 C 38.766527,79.235142 40.866049,79.250746 42.965642,79.262013 C 45.204377,79.263121 47.443108,79.255515 49.681835,79.250236 C 51.911359,79.288407 54.056294,80.132787 56.197569,80.733041 C 58.38194,81.187484 60.612142,81.192521 62.829887,81.271758 C 63.8577,81.288621 64.885656,81.278718 65.913521,81.282198 L 54.938108,91.263259 C 53.904155,91.247361 52.869601,91.258179 51.836075,91.215561 C 49.559093,91.067305 47.269049,90.992402 45.04315,90.425093 C 42.964525,89.843194 40.906125,89.100135 38.717644,89.226882 C 36.487545,89.221596 34.257443,89.213979 32.027336,89.215106 C 29.916694,89.2263 27.806123,89.241958 25.695401,89.230185 C 23.420664,89.221206 21.145884,89.215749 18.871325,89.182083 C 15.058825,89.133443 11.245422,89.063696 7.4327846,89.137576 C 4.6922086,89.185115 1.9514117,89.24531 -0.78974973,89.222097 C -3.0856562,89.21733 -5.3817542,89.202201 -7.6775269,89.234855 C -9.7076989,89.236218 -11.737884,89.241426 -13.768048,89.23306 C -16.063379,89.205004 -18.359942,89.197718 -20.652068,89.05439 C -23.246715,88.8559 -25.854099,88.734935 -28.418489,88.258652 L -17.081875,78.439824 z " />
    <path
       style="opacity:1;fill:#ff0000;fill-opacity:1;stroke:#ff0000;stroke-width:0.80000001;stroke-linecap:round;stroke-linejoin:miter;stroke-miterlimit:4;stroke-dasharray:none;stroke-dashoffset:0;stroke-opacity:1;filter:url(#filter3490)"
       id="path2178"
       d="M -20.112332,97.632722 C -17.958508,98.075581 -15.795274,98.461149 -13.64121,98.913968 C -10.790041,99.400898 -7.892748,99.420183 -5.0103641,99.501264 C -2.023569,99.553309 0.96370575,99.506864 3.9505061,99.479539 C 6.0953604,99.45711 8.2403261,99.454745 10.385264,99.449332 C 12.398385,99.447066 14.411508,99.447932 16.42463,99.447888 C 18.442533,99.448134 20.460436,99.448167 22.478339,99.448266 C 24.498604,99.448315 26.51887,99.448309 28.539135,99.448313 C 30.779115,99.973256 33.060623,100.13309 35.340991,100.34942 C 37.807528,100.29228 40.216034,100.57723 42.649532,100.84679 C 44.66876,101.27717 46.731139,101.29282 48.779133,101.43217 C 50.787584,101.48851 52.796964,101.47145 54.805908,101.47593 L 43.830202,111.46248 C 41.805848,111.45318 39.780378,111.46565 37.757695,111.36722 C 35.676748,111.19678 33.59222,111.06395 31.540669,110.6404 C 29.156434,110.44915 26.771314,110.25938 24.374338,110.18796 C 22.099416,109.95865 19.832151,109.69801 17.56401,109.43491 C 15.543719,109.43491 13.523428,109.4349 11.503137,109.43491 C 9.4850154,109.43497 7.4668938,109.43495 5.4487722,109.43518 C 3.4363934,109.43547 1.4240147,109.43586 -0.58836403,109.43583 C -2.7163762,109.43419 -4.8444058,109.43516 -6.9723856,109.42113 C -9.9334806,109.39493 -12.894556,109.36808 -15.855521,109.32862 C -18.823453,109.25268 -21.810139,109.22449 -24.7328,108.63655 C -26.969326,108.22381 -29.203177,107.81189 -31.448947,107.45155 L -20.112332,97.632722 z " />
    <path
       style="opacity:1;fill:#ff0000;fill-opacity:1;stroke:#ff0000;stroke-width:0.80000001;stroke-linecap:round;stroke-linejoin:miter;stroke-miterlimit:4;stroke-dasharray:none;stroke-dashoffset:0;stroke-opacity:1;filter:url(#filter3494)"
       id="path2180"
       d="M -23.263041,115.55571 C -21.2429,115.64343 -19.219743,115.61788 -17.19821,115.62064 C -14.54258,115.6157 -11.887158,115.65102 -9.2318167,115.68556 C -5.9470644,115.71334 -2.6625152,115.67687 0.6220546,115.6477 C 2.8660473,115.62308 5.1101612,115.61906 7.3542503,115.61231 C 9.369096,115.60938 11.383944,115.6104 13.398791,115.61027 C 15.415255,115.61053 17.431718,115.61058 19.448182,115.61069 C 21.468329,115.61075 23.488477,115.61075 25.508624,115.61075 C 27.68564,115.81013 29.697092,116.52943 31.739692,117.22667 C 33.799271,117.96711 35.909919,118.56222 37.981903,119.25154 C 39.820354,119.78402 41.716823,119.48633 43.545773,119.45769 C 44.357014,119.19299 45.210516,119.11823 46.041085,118.94887 L 35.210456,129.1559 C 34.358961,129.30255 33.519944,129.52739 32.655707,129.5959 C 30.676041,129.47301 28.664961,129.55744 26.741424,128.94878 C 24.642455,128.2129 22.540621,127.48158 20.424558,126.79216 C 18.490379,126.24575 16.577559,125.58913 14.533501,125.59735 C 12.51331,125.59735 10.49312,125.59735 8.4729294,125.59741 C 6.4561552,125.59752 4.4393811,125.59757 2.4226069,125.59783 C 0.40925551,125.5977 -1.6040971,125.59872 -3.6174472,125.59579 C -5.8356078,125.58907 -8.0537948,125.5852 -10.271856,125.5604 C -13.528688,125.53091 -16.785494,125.49463 -20.042514,125.52254 C -22.74543,125.55672 -25.448422,125.59211 -28.151614,125.58747 C -30.220754,125.59028 -32.291286,125.56675 -34.359154,125.65239 L -23.263041,115.55571 z " />
    <path
       sodipodi:type="arc"
       style="opacity:1;fill:#000000;fill-opacity:1;stroke:#000000;stroke-width:0.80000001;stroke-linecap:round;stroke-linejoin:miter;stroke-miterlimit:4;stroke-dasharray:none;stroke-dashoffset:0;stroke-opacity:1;filter:url(#filter3194)"
       id="path2182"
       sodipodi:cx="151.01781"
       sodipodi:cy="143.33249"
       sodipodi:rx="24.748737"
       sodipodi:ry="24.748737"
       d="M 175.76654 143.33249 A 24.748737 24.748737 0 1 1  126.26907,143.33249 A 24.748737 24.748737 0 1 1  175.76654 143.33249 z"
       transform="translate(5.0507627,-9.0913729)" />
    <path
       transform="translate(269.05076,-9.0913729)"
       d="M 175.76654 143.33249 A 24.748737 24.748737 0 1 1  126.26907,143.33249 A 24.748737 24.748737 0 1 1  175.76654 143.33249 z"
       sodipodi:ry="24.748737"
       sodipodi:rx="24.748737"
       sodipodi:cy="143.33249"
       sodipodi:cx="151.01781"
       id="path2184"
       style="opacity:1;fill:#000000;fill-opacity:1;stroke:#000000;stroke-width:0.80000001;stroke-linecap:round;stroke-linejoin:miter;stroke-miterlimit:4;stroke-dasharray:none;stroke-dashoffset:0;stroke-opacity:1;filter:url(#filter3186)"
       sodipodi:type="arc" />
    <text
       xml:space="preserve"
       style="font-size:99.14364624px;font-style:normal;font-variant:normal;font-weight:normal;font-stretch:normal;text-align:start;line-height:125%;writing-mode:lr-tb;text-anchor:start;fill:#000000;fill-opacity:1;stroke:none;stroke-width:1px;stroke-linecap:butt;stroke-linejoin:miter;stroke-opacity:1;font-family:Impact"
       x="139.03093"
       y="96.766113"
       id="text3518"
       transform="matrix(0.9934565,0,-0.4568586,1.0065866,0,0)"
       sodipodi:linespacing="125%"><tspan
         sodipodi:role="line"
         id="tspan3520"
         x="139.03093"
         y="96.766113"
         style="font-size:99.14364624px;font-style:normal;font-variant:normal;font-weight:normal;font-stretch:normal;text-align:start;line-height:125%;writing-mode:lr-tb;text-anchor:start;fill:#ffffff;fill-opacity:1;font-family:Impact">CRAZYBUS</tspan></text>
  </g>
</svg>
